<svg viewBox="0 -13 512.00043 512" xmlns="http://www.w3.org/2000/svg"><path d="m407.9375 130.976562-.648438-.796874-60.5-52.191407c-152.1875-107.378906-339.304687-57.007812-336.765624 156.957031 1.871093 156.949219 117.449218 222.167969 142.558593 152.539063 7.171875-19.871094 2.242188-53.332031 37.511719-67.359375 22.316406-8.871094 46.648438 1.757812 57.1875 24.75 25.578125 55.789062 35.078125 104.136719 92.65625 124.367188 146.679688 51.507812 213.019531-179.527344 68-338.265626zm0 0" fill="#f6d465"/><path d="m150.613281 281.515625-.050781-.609375-16.128906-27.410156c-6.609375-4.839844-14.769532-7.699219-23.601563-7.699219-22.089843 0-40 17.910156-40 40 0 22.085937 17.910157 39.996094 40 39.996094 22.101563 0 40-17.910157 40-39.996094 0-1.453125-.070312-2.871094-.21875-4.28125zm0 0" fill="#a9def8"/><path d="m500.40625 14.191406c10.371094 14.808594-32.550781 66.457032-93.117188 115.988282-35.550781 29.070312-74.941406 55.195312-109.519531 74.1875l-41.25-58.910157c28.367188-24.824219 59.085938-47.113281 90.269531-67.46875 72.449219-47.296875 142.386719-79.839843 153.617188-63.796875zm0 0" fill="#ff6c6c"/><path d="m390.828125 215.796875c22.101563 0 40 17.910156 40 40s-17.898437 39.996094-40 39.996094c-22.089844 0-40-17.90625-40-39.996094s17.910156-40 40-40zm0 0" fill="#ff6c6c"/><path d="m370.828125 335.792969c22.101563 0 40 17.910156 40 40 0 22.089843-17.898437 40-40 40-22.089844 0-40-17.910157-40-40 0-22.089844 17.910156-40 40-40zm0 0" fill="#a9def8"/><path d="m256.519531 145.457031c-23.867187 20.890625-42.347656 40.441407-53.179687 56.160157l22.550781 33.75h.011719c18.570312-4.679688 43.617187-15.460938 71.867187-31zm0 0" fill="#fff"/><path d="m149.710938 220.714844c13-27.855469 51.402343-31.140625 69.011718-6.007813 17.714844 25.3125 1.167969 60.144531-29.242187 62.796875-.160157.015625-68.164063 5.953125-69.046875 6.03125.707031-1.515625 29.15625-62.5625 29.277344-62.820312zm0 0" fill="#3a5361"/><path d="m140.832031 85.796875c22.101563 0 40 17.910156 40 40s-17.898437 40-40 40c-22.089843 0-40-17.910156-40-40s17.910157-40 40-40zm0 0" fill="#6eba7b"/><path d="m320.988281 132.917969c-4.519531 3.167969-5.617187 9.398437-2.457031 13.929687 3.167969 4.519532 9.40625 5.621094 13.929688 2.449219 4.527343-3.160156 5.617187-9.398437 2.457031-13.917969-3.167969-4.53125-9.410157-5.632812-13.929688-2.460937zm0 0"/><path d="m412.382812 63.636719-60.3125 46.621093c-4.367187 3.375-5.171874 9.65625-1.792968 14.023438 3.382812 4.378906 9.664062 5.171875 14.027344 1.796875l60.308593-46.617187c4.367188-3.378907 5.171875-9.660157 1.796875-14.027344-3.378906-4.371094-9.660156-5.175782-14.027344-1.796875zm0 0"/><path d="m488.214844 65.464844c22.085937-27.214844 28.5625-45.332032 20.382812-57.011719-8.832031-12.613281-29.183594-11.164063-66 4.699219-26.640625 11.480468-60.410156 30.144531-95.632812 52.808594-82.972656-56.191407-177.167969-68.351563-247.226563-31.511719-65.429687 34.40625-100.839843 105.652343-99.7109372 200.617187.7656252 64.421875 19.7226562 107.78125 35.4921872 132.808594 19.921875 31.628906 46.023438 52.242188 71.609375 56.558594 25.902344 4.371094 45.992188-8.964844 54.859375-33.554688 7.765625-21.523437 2.28125-49.722656 31.796875-61.460937 17.351563-6.894531 36.027344 1.355469 44.40625 19.625 25.78125 56.230469 36.144532 107.746093 98.433594 129.632812 55.636719 19.539063 104.035156 1.820313 133.566406-42.855469 46.027344-69.625 41.496094-200.464843-48.609375-304.523437 26.949219-22.6875 50.398438-45.828125 66.632813-65.832031zm-34.707032 359.328125c-25.507812 38.589843-64.667968 51.023437-110.253906 35.015625-52.863281-18.574219-61.585937-63.9375-86.882812-119.101563-12.753906-27.816406-42.832032-40.660156-69.976563-29.875-40.910156 16.273438-36.703125 55.203125-43.222656 73.257813-5.8125 16.121094-17.121094 23.253906-32.714844 20.625-35.726562-6.027344-89.175781-64.1875-90.433593-169.886719-1.035157-87.070313 30.582031-151.945313 89.019531-182.675781 61.585937-32.382813 144.691406-22.339844 219.746093 25.78125-5.25 3.535156-10.484374 7.121094-15.65625 10.742187-22.921874 16.046875-44.167968 32.601563-63.144531 49.207031-.007812.011719-.015625.015626-.027343.023438-.007813.007812-.019532.019531-.027344.027344-21.4375 18.757812-38.636719 36.46875-50.226563 51.671875-23.820312-6.796875-48.757812 4.808593-59.058593 26.886719l-10.75 23.0625c-5.992188-2.476563-12.433594-3.757813-19.066407-3.757813-27.570312 0-50 22.429687-50 50 0 27.566406 22.429688 49.996094 50 49.996094 26.128907 0 47.628907-20.152344 49.800781-45.730469l29.714844-2.59375c23.285156-2.03125 42.757813-20.285156 45.304688-44.449219 17.9375-5.453125 40.113281-15.285156 64.78125-28.722656 1.171875-.300781 2.308594-.8125 3.347656-1.5625.359375-.257813.691406-.542969 1.003906-.835937 21.367188-11.847657 43.449219-25.722657 65.695313-41.300782 12.054687-8.445312 24-17.378906 35.617187-26.625 82.914063 95.585938 89.679688 216.882813 47.410156 280.820313zm-219.851562-202.128907c-1.523438-4.851562-3.789062-9.472656-6.746094-13.695312-2.605468-3.722656-5.71875-7.050781-9.207031-9.921875 9.113281-11.507813 21.6875-24.617187 37.082031-38.636719l28.335938 40.46875c-18.480469 9.679688-35.476563 17.160156-49.464844 21.785156zm-121.414062 66.605469c1.882812 2.6875 4.945312 4.265625 8.1875 4.265625.289062 0 .582031-.011718.875-.039062l18.914062-1.652344c-2.808594 13.652344-14.917969 23.949219-29.386719 23.949219-16.542969 0-30-13.457031-30-29.996094 0-16.542969 13.457031-30 30-30 3.675781 0 7.242188.671875 10.59375 1.9375l-10.054687 21.578125c-1.511719 3.234375-1.179688 7.03125.871094 9.957031zm24.566406-17.203125c3.058594-6.5625 19.144531-41.066406 21.964844-47.121094 9.710937-20.8125 38.519531-23.398437 51.753906-4.507812 13.394531 19.140625.714844 45.128906-21.914063 47.105469zm222.203125-117.851562c-19.699219 13.796875-39.246094 26.21875-58.230469 37.011718l-30.882812-44.097656c16.691406-14.1875 35.050781-28.3125 54.707031-42.070312 35.273437-24.691406 81.421875-53.503906 120.5-71.152344 32.523437-14.6875 43.933593-14.21875 46.859375-13.640625-.25 3.710937-4.417969 14.996094-22.332032 36.289063-29.097656 34.585937-73.050781 71.34375-110.621093 97.660156zm0 0"/><path d="m370.828125 325.792969c-27.570313 0-50 22.429687-50 50 0 27.570312 22.429687 50 50 50s50-22.429688 50-50c0-27.570313-22.429687-50-50-50zm0 80c-16.542969 0-30-13.457031-30-30s13.457031-30 30-30 30 13.457031 30 30-13.457031 30-30 30zm0 0"/><path d="m390.828125 205.796875c-27.570313 0-50 22.429687-50 50 0 27.566406 22.429687 49.996094 50 49.996094s50-22.429688 50-49.996094c0-27.570313-22.429687-50-50-50zm0 80c-16.542969 0-30-13.460937-30-30 0-16.542969 13.457031-30 30-30s30 13.457031 30 30c0 16.539063-13.457031 30-30 30zm0 0"/><path d="m140.832031 175.796875c27.570313 0 50-22.429687 50-50s-22.429687-50-50-50c-27.570312 0-50 22.429687-50 50s22.429688 50 50 50zm0-80c16.542969 0 30 13.460937 30 30 0 16.542969-13.457031 30-30 30s-30-13.457031-30-30c0-16.539063 13.457031-30 30-30zm0 0"/></svg>